<svg xmlns="http://www.w3.org/2000/svg" viewBox="0 0 24 24" width="24" height="24" fill="currentColor">
  <path d="M12.504 0c-.155 0-.315.008-.480.021-4.226.333-3.105 4.807-3.17 6.298-.076 1.092-.3 1.953-1.050 3.02-.885 1.051-2.127 2.75-2.716 4.521-.278.832-.41 1.684-.287 2.489a.424.424 0 0 0-.11.135c-.26.268-.45.6-.663.839-.199.199-.485.267-.797.4-.313.136-.658.269-.864.68-.09.189-.136.394-.132.602.006.199.024.4.06.592.07.33.17.646.295.948.16.382.46.613.86.677.145.025.29.018.434-.012.181-.04.361-.112.53-.207.148-.081.28-.188.395-.315.077-.085.139-.180.185-.287l.107-.016c.131.48.418.939.794 1.284.376.345.867.572 1.38.595.513.02 1.027-.134 1.476-.39.449-.255.850-.6 1.121-1.002.316-.47.504-1.01.504-1.55 0-.285-.043-.568-.134-.839-.003-.009-.007-.020-.012-.030-.049-.179-.085-.302-.085-.302l.014-.025c.16-.506.331-1.05.331-1.764 0-.472-.14-.928-.392-1.33-.252-.4-.63-.738-1.09-.995-.184-.103-.397-.169-.614-.199-.216-.031-.438-.024-.654.021-.433.09-.840.27-1.187.53-.348.26-.644.594-.859.974-.215.38-.358.79-.421 1.202-.063.41-.045.82.053 1.215.049.197.12.39.213.573.054.101.120.198.200.291.085.1.181.19.296.259.23.138.507.167.746.097.239-.07.451-.24.555-.495.104-.254.093-.546-.031-.779-.062-.117-.17-.186-.300-.226-.065-.02-.133-.025-.200-.013-.067.011-.131.035-.186.071-.027.018-.05.04-.07.066-.019.025-.031.055-.034.085 0 .005-.003.009-.008.014-.003.003-.009.003-.015-.002-.5-.417-.68-.505-.68-.505.14-.14.28-.28.42-.42l.7-.7c.133-.133.266-.266.4-.4.065-.065.13-.13.195-.195l.108-.108c.031-.031.063-.063.094-.094.094-.094.188-.188.282-.282.377-.377.754-.754 1.131-1.131.13-.13.26-.26.39-.39.065-.065.13-.13.195-.195.032-.032.065-.065.097-.097.16-.16.32-.32.48-.48.133-.133.266-.266.4-.4.065-.065.13-.13.195-.195.97-.97 1.94-1.94 2.91-2.91.485-.485.97-.97 1.455-1.455C3.694 10.536 3.9 9.725 4.2 8.933c.3-.792.69-1.513 1.171-2.143.964-1.259 2.274-2.215 3.685-2.806 1.411-.591 2.91-.806 4.402-.638 1.492.168 2.963.662 4.2 1.402 1.237.74 2.31 1.726 3.043 2.881.367.578.654 1.207.846 1.87.096.33.169.674.217 1.023.024.174.043.349.055.525.006.088.009.177.009.265-.001.13-.011.26-.033.388-.022.128-.055.253-.1.374-.089.242-.224.467-.408.644-.184.177-.413.299-.66.341-.246.042-.5.006-.734-.106-.469-.224-.945-.449-1.407-.695-.231-.123-.456-.252-.675-.387-.109-.068-.214-.14-.314-.216-.05-.038-.097-.078-.141-.121-.022-.021-.04-.045-.054-.071-.007-.013-.009-.027-.005-.041.004-.014.016-.025.029-.033.26-.16.49-.37.68-.625.19-.255.34-.55.44-.865.2-.63.17-1.32-.08-1.91-.25-.59-.72-1.07-1.32-1.32-.3-.125-.63-.185-.96-.175-.33.01-.66.09-.96.24-.6.3-1.08.78-1.32 1.38-.24.6-.27 1.29-.08 1.91.19.62.58 1.16 1.11 1.52.53.36 1.2.51 1.83.42.315-.045.62-.165.87-.35.125-.092.23-.21.305-.345.037-.068.061-.143.072-.22.005-.038.005-.077-.002-.115-.007-.038-.021-.074-.043-.105-.044-.062-.11-.105-.185-.122-.075-.017-.155-.006-.22.03-.065.036-.115.094-.14.165-.012.036-.015.075-.007.113.008.038.026.072.052.099.013.013.029.023.047.029.009.003.019.003.029-.001.005-.002.009-.007.011-.013.002-.006.001-.013-.004-.018-.002-.002-.005-.002-.008-.001-.001.001-.002.003-.001.005.004.008.01.014.018.018.016.008.037.009.055.001.009-.004.016-.011.02-.02.008-.018.009-.038.002-.057-.007-.019-.021-.035-.039-.044-.036-.018-.08-.016-.114.004-.034.02-.059.052-.069.089-.005.018-.005.038.001.057.012.038.04.069.076.085.072.032.16.025.225-.02.065-.045.109-.12.119-.2.005-.04.002-.081-.01-.118-.024-.074-.078-.134-.148-.164-.035-.015-.074-.021-.113-.017-.039.004-.076.018-.107.04-.124.088-.2.234-.203.39-.002.078.018.154.058.219.08.13.22.21.37.21.075 0 .15-.015.22-.045.28-.12.47-.39.47-.7 0-.21-.08-.41-.22-.55-.07-.07-.15-.12-.24-.15-.045-.015-.093-.023-.142-.024-.098-.002-.195.02-.285.065-.36.18-.65.48-.8.85-.075.185-.105.39-.085.585.04.39.25.74.57.98.16.12.34.2.53.24.095.02.19.025.29.015.2-.02.39-.09.55-.21.32-.24.55-.6.64-.99.045-.195.055-.4.03-.6-.05-.4-.22-.77-.48-1.06-.13-.145-.29-.26-.47-.34-.09-.04-.18-.07-.28-.09-.05-.01-.1-.015-.15-.015-.2.005-.39.06-.56.16-.34.2-.6.52-.73.9-.065.19-.085.395-.06.595.05.4.25.77.55 1.01.15.12.33.2.52.23.095.015.19.015.29 0 .2-.03.39-.12.54-.26.31-.28.49-.68.49-1.09 0-.205-.04-.41-.12-.6-.16-.38-.46-.69-.84-.86-.19-.085-.4-.125-.61-.115-.21.01-.42.07-.6.18-.36.22-.64.56-.77.96-.065.2-.08.42-.045.63.07.42.32.79.69 1.01.185.11.4.17.62.17.11 0 .22-.015.33-.045.22-.06.42-.18.57-.35.3-.34.43-.79.35-1.22-.04-.215-.13-.42-.26-.59-.065-.085-.14-.16-.23-.215-.045-.03-.095-.05-.145-.06-.1-.02-.21-.015-.31.015-.2.06-.37.2-.48.39-.055.095-.085.205-.085.315 0 .055.01.11.03.16.04.1.11.18.2.23.045.025.095.04.145.045.05.005.1.002.15-.01.1-.025.19-.08.25-.155.03-.04.05-.085.06-.13.005-.025.005-.05 0-.075-.01-.05-.035-.095-.075-.125-.02-.015-.045-.025-.07-.03-.025-.005-.05-.002-.075.01-.05.025-.085.075-.095.13-.005.03-.002.06.01.085.012.025.035.045.06.055.025.01.055.01.08 0 .025-.01.045-.03.055-.055.005-.012.005-.026 0-.039-.005-.013-.015-.024-.03-.029-.007-.002-.015-.002-.023.002-.004.002-.007.005-.008.009-.001.002 0 .005.003.007.006.004.014.004.021-.001.007-.005.011-.012.013-.021.002-.009.001-.019-.004-.027-.01-.016-.028-.027-.048-.029-.04-.004-.081.007-.112.032-.031.025-.052.061-.058.101-.003.02-.001.041.006.06.014.038.043.068.08.082.074.028.16.015.22-.032.06-.047.094-.12.094-.196 0-.038-.01-.075-.03-.107-.04-.064-.11-.108-.19-.12-.04-.006-.081-.002-.12.012-.078.028-.14.09-.17.17-.015.04-.02.083-.013.125.014.084.07.155.15.185.04.015.083.018.125.008.084-.02.155-.078.185-.158.015-.04.018-.083.008-.125-.02-.084-.078-.155-.158-.185-.04-.015-.083-.018-.125-.008-.084.02-.155.078-.185.158-.015.04-.018.083-.008.125.02.084.078.155.158.185.04.015.083.018.125.008.042-.01.078-.035.104-.072.026-.037.04-.082.04-.128 0-.023-.003-.046-.01-.068-.014-.044-.043-.081-.082-.104-.039-.023-.086-.033-.133-.028-.047.005-.092.023-.127.052-.071.058-.11.145-.105.236.002.045.015.089.038.127.046.076.133.122.227.118.047-.002.093-.015.134-.038.082-.046.133-.135.133-.233 0-.071-.028-.139-.078-.19-.05-.051-.118-.079-.19-.079-.036 0-.071.007-.104.021-.066.028-.121.076-.154.135-.033.059-.043.127-.029.193.029.132.15.224.285.218.068-.003.133-.033.18-.083.047-.05.075-.117.078-.187.003-.035-.003-.07-.016-.102-.026-.064-.074-.115-.134-.143-.06-.028-.128-.032-.192-.011-.128.042-.216.163-.209.297.004.067.029.131.072.182.043.051.101.087.165.102.032.008.065.009.098.003.066-.012.126-.044.17-.09.088-.092.133-.218.125-.346-.004-.064-.024-.126-.058-.179-.068-.106-.188-.17-.318-.17-.065 0-.129.018-.184.052-.11.068-.186.183-.204.311-.009.064-.001.129.023.189.048.12.154.211.28.24.063.015.128.013.19-.005.124-.036.226-.13.275-.254.025-.062.032-.129.02-.194-.024-.13-.11-.243-.235-.308-.062-.032-.133-.046-.203-.04-.14.012-.267.09-.338.208-.035.059-.054.126-.054.194 0 .034.006.068.017.1.022.064.063.118.118.158.055.04.121.064.189.069.034.002.068-.001.101-.01.066-.018.125-.052.17-.098.09-.092.14-.217.14-.345 0-.064-.015-.127-.044-.183-.058-.112-.168-.19-.297-.21-.064-.01-.13-.002-.192.022-.124.048-.22.153-.26.283-.02.065-.023.133-.008.199.03.132.127.241.254.286.063.023.132.028.199.014.134-.028.246-.13.293-.267.023-.068.026-.141.008-.211-.036-.140-.14-.256-.278-.31-.069-.027-.145-.032-.218-.014-.146.036-.267.15-.316.298-.025.074-.029.153-.011.23.036.154.154.28.31.33.078.025.162.026.241.003.158-.046.282-.176.325-.34.021-.082.02-.168-.003-.25-.046-.164-.164-.302-.325-.383-.08-.04-.172-.054-.262-.039-.18.03-.34.15-.42.31-.04.08-.055.17-.042.26.026.18.15.33.33.39.09.03.19.03.28 0 .18-.06.32-.21.36-.40.02-.095.015-.195-.015-.285-.06-.18-.2-.33-.38-.39-.09-.03-.19-.03-.28 0-.18.06-.32.21-.36.4-.02.095-.015.195.015.285.06.18.2.33.38.39.045.015.092.022.14.02.096-.004.188-.039.26-.1.144-.122.225-.304.22-.495-.003-.095-.032-.187-.085-.265-.106-.156-.288-.252-.485-.257-.098-.003-.195.02-.28.067-.17.094-.29.26-.32.45-.015.095-.007.194.025.284.064.18.21.32.4.37.095.025.197.02.29-.015.186-.07.33-.24.38-.44.025-.1.02-.21-.015-.305-.07-.19-.22-.34-.42-.39-.1-.025-.21-.02-.31.015-.2.07-.36.25-.41.46-.025.105-.02.22.015.32.07.2.24.36.44.41.1.025.21.02.31-.015.2-.07.36-.25.41-.46.025-.105.02-.22-.015-.32-.07-.2-.24-.36-.44-.41-.1-.025-.21-.02-.31.015-.2.07-.36.25-.41.46-.025.105-.02.22.015.32.07.2.24.36.44.41z"/>
</svg>